<svg width="30" height="30" viewBox="0 0 30 30" fill="none" xmlns="http://www.w3.org/2000/svg">
<g id="Group 93">
<g id="Group 92">
<rect id="Rectangle 1196" x="3" y="5" width="24" height="20" rx="2" fill="white" stroke="#707070" stroke-width="2"/>
<rect id="Rectangle 1197" x="3" y="5" width="24" height="3" fill="#707070"/>
<rect id="Rectangle 1198" x="23" y="5" width="2" height="2" rx="0.5" fill="white"/>
<rect id="Rectangle 1199" x="20" y="5" width="2" height="2" rx="0.5" fill="white"/>
<rect id="Rectangle 1200" x="17" y="5" width="2" height="2" rx="0.5" fill="white"/>
<g id="&#240;&#159;&#166;&#134; icon &#34;chevron right&#34;">
<g id="Clip path group">
<mask id="mask0_5763_20128" style="mask-type:luminance" maskUnits="userSpaceOnUse" x="4" y="11" width="10" height="10">
<g id="a">
<path id="Vector" d="M4 11H14V21H4V11Z" fill="white"/>
</g>
</mask>
<g mask="url(#mask0_5763_20128)">
<g id="Group">
<path id="Vector_2" d="M7.75 19.3346L9.905 17.1796C10.4604 16.6242 10.7383 16.3463 10.7383 16.0013C10.7383 15.6563 10.4604 15.3784 9.905 14.823L7.75 12.668" stroke="#707070" stroke-width="2" stroke-linecap="round" stroke-linejoin="round"/>
<path id="Vector_3" d="M7.75 19.3346L9.905 17.1796C10.4604 16.6242 10.7383 16.3463 10.7383 16.0013C10.7383 15.6563 10.4604 15.3784 9.905 14.823L7.75 12.668" stroke="#707070" stroke-width="2" stroke-linecap="round" stroke-linejoin="round"/>
</g>
</g>
</g>
</g>
<rect id="Rectangle 1201" x="13" y="19" width="10" height="2" rx="1" fill="#707070"/>
</g>
</g>
</svg>
