<svg width="30" height="30" viewBox="0 0 30 30" fill="none" xmlns="http://www.w3.org/2000/svg">
<g id="Group 95">
<g id="&#240;&#159;&#166;&#134; icon &#34;settings&#34;">
<path id="Vector" d="M15.0001 18.9001C17.1541 18.9001 18.9001 17.1541 18.9001 15.0001C18.9001 12.8461 17.1541 11.1001 15.0001 11.1001C12.8461 11.1001 11.1001 12.8461 11.1001 15.0001C11.1001 17.1541 12.8461 18.9001 15.0001 18.9001Z" stroke="#707070" stroke-width="2" stroke-linecap="round" stroke-linejoin="round"/>
<path id="Vector_2" d="M24.9091 12.914L23.4821 9.46824L25.4 7.2L22.8 4.6L20.5441 6.52784L17.0251 5.08066L16.2159 2H13.6753L12.8538 5.12147L9.41573 6.57075L7.2 4.6L4.6 7.2L6.48938 9.5255L5.08425 12.9802L2 13.7V16.3L5.12144 17.1521L6.57047 20.5896L4.6 22.8L7.2 25.4L9.52851 23.5024L12.9161 24.896L13.7 28H16.3L17.0858 24.8972L20.5316 23.4701C21.106 23.8807 22.8 25.4 22.8 25.4L25.4 22.8L23.4707 20.5242L24.8981 17.0774L27.9999 16.2704L28 13.7L24.9091 12.914Z" stroke="#707070" stroke-width="2" stroke-linecap="round" stroke-linejoin="round"/>
</g>
</g>
</svg>
